# xmcd
#
# Track frame offsets: 
#        150
#        14564
#        34180
#        43692
#        61605
#        84342
#        100207
#        111513
#        125894
#        141743
#        158834
#        174211
#        189327
#        207784
#        223013
#        241492
#        267091
#
# Disc length: 3701 seconds
#
# Revision: 0
# Processed by: cddbd v1.5.2PL0 Copyright (c) Steve Scherf et al.
# Submitted via: ExactAudioCopyFreeDBPlugin 1.0
#
DISCID=f40e7311
DTITLE=Headlight - Country and Cajon
DYEAR=1900
DGENRE=Country
TTITLE0=Southern Streamline
TTITLE1=All you ever do is bring me down
TTITLE2=Oh, Susanna
TTITLE3=I have come awful close
TTITLE4=As sure as the sun will rise
TTITLE5=Chattahoochee
TTITLE6=Highway-Blues (Highway 40 Blues)
TTITLE7=Summertime Blues
TTITLE8=Baby, hold on
TTITLE9=Motorrad-Blues (Mercury Blues)
TTITLE10=My Maria
TTITLE11=Walking the floor over you
TTITLE12=Peaceful, easy feeling
TTITLE13=Lisette
TTITLE14=Kreise
TTITLE15=Leaving on a jetplane
TTITLE16=Oh, Susanna (Dance-Remix)
EXTD=
EXTT0=
EXTT1=
EXTT2=
EXTT3=
EXTT4=
EXTT5=
EXTT6=
EXTT7=
EXTT8=
EXTT9=
EXTT10=
EXTT11=
EXTT12=
EXTT13=
EXTT14=
EXTT15=
EXTT16=
PLAYORDER=
